<svg xmlns="http://www.w3.org/2000/svg" viewBox="0 0 500 500" width="500" height="500">
  <style>
    .st0{fill:#f0f0f0}.st1{fill:#3b82f6}.st2{fill:#6b7280}.st3{fill:#e5e7eb}
  </style>
  <g id="BACKGROUND">
    <path class="st0" d="M0 0h500v500H0z"/>
    <path class="st1" d="M329.8 220.4h-10.9v-49.7h-29.8v49.7h-73.9l-.2-2.9 69.9-101.9h34v93.7h10.9v11.1zM289.1 122h-1.1l-55 80.8h56.1V122z"/>
    <path class="st1" d="M187.1 220.4h-10.9v-49.7h-29.8v49.7H72.5l-.2-2.9 69.9-101.9h34v93.7h10.9v11.1zM146.4 122h-1.1l-55 80.8h56.1V122z"/>
    <path class="st2" d="M381.7 334.5c-11.6 0-21.9-6.8-26.7-17.3l-4.9 19.1H198.7l-4.9-19.1c-4.8 10.5-15.1 17.3-26.7 17.3-16.6 0-30-13.4-30-30s13.4-30 30-30 30 13.4 30 30v.1l3.2 12.9h178.1l3.2-12.9v-.1c0-16.6 13.4-30 30-30s30 13.4 30 30-13.4 30-30 30z"/>
    <path class="st3" d="M381.7 284.6c-11 0-19.9 9-19.9 19.9s9 19.9 19.9 19.9c11 0 19.9-9 19.9-19.9s-8.9-19.9-19.9-19.9zm-214.6 0c-11 0-19.9 9-19.9 19.9s8.9 19.9 19.9 19.9c11 0 19.9-9 19.9-19.9s-8.9-19.9-19.9-19.9z"/>
    <path class="st1" d="M307.5 287.1h-115c-9.9 0-17.9 8-17.9 17.9v29.5c0 .9.7 1.6 1.6 1.6h147.5c.9 0 1.6-.7 1.6-1.6V305c.1-9.9-7.9-17.9-17.8-17.9z"/>
  </g>
</svg> 